<?xml version="1.0" encoding="utf-8"?>
<!-- Generator: Adobe Illustrator 23.0.4, SVG Export Plug-In . SVG Version: 6.00 Build 0)  -->
<svg version="1.1" xmlns="http://www.w3.org/2000/svg" xmlns:xlink="http://www.w3.org/1999/xlink" x="0px" y="0px"
	 viewBox="0 0 20.35 20.35" enable-background="new 0 0 20.35 20.35" xml:space="preserve">
<g id="Layer_2">
</g>
<g id="Layer_1">
	<path fill="#343434" d="M11.02,10.17l9.15-9.15c0.23-0.23,0.23-0.61,0-0.85s-0.61-0.23-0.85,0l-9.15,9.15L1.02,0.18
		c-0.23-0.23-0.61-0.23-0.85,0s-0.23,0.61,0,0.85l9.15,9.15l-9.15,9.15c-0.23,0.23-0.23,0.61,0,0.85c0.12,0.12,0.27,0.18,0.42,0.18
		s0.31-0.06,0.42-0.18l9.15-9.15l9.15,9.15c0.12,0.12,0.27,0.18,0.42,0.18s0.31-0.06,0.42-0.18c0.23-0.23,0.23-0.61,0-0.85
		L11.02,10.17z"/>
</g>
</svg>
