<?xml version="1.0" encoding="utf-8"?>
<!-- Generator: Adobe Illustrator 23.0.4, SVG Export Plug-In . SVG Version: 6.00 Build 0)  -->
<svg version="1.1" id="Layer_1" xmlns="http://www.w3.org/2000/svg" xmlns:xlink="http://www.w3.org/1999/xlink" x="0px" y="0px"
	 viewBox="0 0 20.35 20.54" enable-background="new 0 0 20.35 20.54" xml:space="preserve">
<g>
	<g>
		<g>
			<path fill="#343434" d="M19.75,1.2H0.6C0.27,1.2,0,0.93,0,0.6S0.27,0,0.6,0h19.15c0.33,0,0.6,0.27,0.6,0.6S20.08,1.2,19.75,1.2z"
				/>
		</g>
		<g>
			<path fill="#343434" d="M19.75,20.54H0.6c-0.33,0-0.6-0.27-0.6-0.6s0.27-0.6,0.6-0.6h19.15c0.33,0,0.6,0.27,0.6,0.6
				S20.08,20.54,19.75,20.54z"/>
		</g>
		<g>
			<path fill="#343434" d="M19.75,10.77H0.6c-0.33,0-0.6-0.27-0.6-0.6s0.27-0.6,0.6-0.6h19.15c0.33,0,0.6,0.27,0.6,0.6
				S20.08,10.77,19.75,10.77z"/>
		</g>
	</g>
</g>
</svg>
